HIERARCHY
ROOT Hips
{
 OFFSET 0.000000 0.000000 0.000000
 CHANNELS 6 Xposition Yposition Zposition Yrotation Xrotation Zrotation
 JOINT Chest
 {
  OFFSET 0.000000 9.588913 -0.003946
  CHANNELS 3 Yrotation Xrotation Zrotation
  JOINT Chest2
  {
   OFFSET 0.000000 9.541882 0.008053
   CHANNELS 3 Yrotation Xrotation Zrotation
   JOINT Chest3
   {
    OFFSET 0.000000 9.501360 0.000000
    CHANNELS 3 Yrotation Xrotation Zrotation
    JOINT Chest4
    {
     OFFSET 0.000000 9.491660 0.000000
     CHANNELS 3 Yrotation Xrotation Zrotation
     JOINT Neck
     {
      OFFSET 0.000000 14.331917 0.000000
      CHANNELS 3 Yrotation Xrotation Zrotation
      JOINT Head
      {
       OFFSET 0.000000 8.884799 0.017034
       CHANNELS 3 Yrotation Xrotation Zrotation
       End Site
       {
        OFFSET 0.000000 16.896195 0.008993
       }
      }
     }
     JOINT RightCollar
     {
      OFFSET -2.923010 9.499495 0.000000
      CHANNELS 3 Yrotation Xrotation Zrotation
      JOINT RightShoulder
      {
       OFFSET -13.795216 0.000000 0.000000
       CHANNELS 3 Yrotation Xrotation Zrotation
       JOINT RightElbow
       {
        OFFSET -30.272209 0.000000 0.000000
        CHANNELS 3 Yrotation Xrotation Zrotation
        JOINT RightWrist
        {
         OFFSET -24.478199 0.000000 0.000000
         CHANNELS 3 Yrotation Xrotation Zrotation
         End Site
         {
          OFFSET -18.090752 0.000000 0.000000
         }
        }
       }
      }
     }
     JOINT LeftCollar
     {
      OFFSET 2.923010 9.499495 0.000000
      CHANNELS 3 Yrotation Xrotation Zrotation
      JOINT LeftShoulder
      {
       OFFSET 13.795216 0.000000 0.000000
       CHANNELS 3 Yrotation Xrotation Zrotation
       JOINT LeftElbow
       {
        OFFSET 30.272209 0.000000 0.000000
        CHANNELS 3 Yrotation Xrotation Zrotation
        JOINT LeftWrist
        {
         OFFSET 24.478199 0.000000 0.000000
         CHANNELS 3 Yrotation Xrotation Zrotation
         End Site
         {
          OFFSET 18.090752 0.000000 0.000000
         }
        }
       }
      }
     }
    }
   }
  }
 }
 JOINT RightHip
 {
  OFFSET -7.826875 0.019532 0.001973
  CHANNELS 3 Yrotation Xrotation Zrotation
  JOINT RightKnee
  {
   OFFSET 0.000000 -40.546152 -0.001885
   CHANNELS 3 Yrotation Xrotation Zrotation
   JOINT RightAnkle
   {
    OFFSET 0.000000 -39.417092 -0.003189
    CHANNELS 3 Yrotation Xrotation Zrotation
    JOINT RightToe
    {
     OFFSET 0.000000 -7.579396 17.243563
     CHANNELS 3 Yrotation Xrotation Zrotation
     End Site
     {
      OFFSET 0.000000 -1.500329 6.694466
     }
    }
   }
  }
 }
 JOINT LeftHip
 {
  OFFSET 7.826875 0.019532 0.001973
  CHANNELS 3 Yrotation Xrotation Zrotation
  JOINT LeftKnee
  {
   OFFSET 0.000000 -40.546152 -0.001885
   CHANNELS 3 Yrotation Xrotation Zrotation
   JOINT LeftAnkle
   {
    OFFSET 0.000000 -39.417092 -0.003189
    CHANNELS 3 Yrotation Xrotation Zrotation
    JOINT LeftToe
    {
     OFFSET 0.000000 -7.579396 17.243563
     CHANNELS 3 Yrotation Xrotation Zrotation
     End Site
     {
      OFFSET 0.000000 -1.500329 6.694466
     }
    }
   }
  }
 }
}
MOTION
Frames: 14
Frame Time: 0.008333
0.000000 87.345680 0.000000 0.000000 -5.767889 0.000000 0.000000 11.653876 0.000000 0.000000 -5.885988 0.000000 0.000000 -0.000000 0.000000 0.000000 -0.000000 0.000000 0.000000 12.528808 0.000000 0.000000 0.711711 0.000000 0.000000 -0.000000 0.000000 0.000000 -0.000000 0.000000 2.309063 -0.000000 0.000000 -2.309063 -0.000000 -0.000000 0.000000 -0.000000 0.000000 0.000000 0.000000 0.000000 -2.309063 0.000000 0.000000 2.309063 -0.000000 0.000000 0.000000 8.520374 0.000000 0.000000 1.905768 0.000000 -0.000000 -4.658254 0.000000 0.000000 -0.000000 0.000000 0.000000 8.520374 0.000000 0.000000 1.905768 0.000000 -0.000000 -4.658254 0.000000 0.000000 -0.000000 0.000000
-24.146442 86.740273 7.506218 -42.133148 -9.144539 -7.985116 3.204274 5.938224 0.074066 1.923947 3.528794 -0.268957 2.403474 4.412245 -0.317781 1.923937 3.528792 -0.268963 2.710898 26.764268 0.120148 2.942777 3.628346 -0.485677 -6.534156 -1.075845 -5.374491 -20.112743 -12.730157 63.794833 84.479564 -13.445779 14.532892 12.051556 -5.728682 -12.685564 -13.389608 -5.341831 5.194572 22.589379 -22.806018 -62.809413 -47.373863 -11.105190 -11.586373 -14.276685 -1.707927 15.771012 -1.673776 -7.066938 -4.644188 6.394833 27.255163 2.660594 6.165876 6.123237 19.598408 1.482462 -18.750586 -9.122172 2.486294 -3.234856 4.265961 -11.991373 37.751624 -2.486049 -3.398536 -23.887845 -9.203291 -0.231350 -1.390064 -0.209398
-24.224673 87.115223 7.482772 -42.342157 -9.066891 -8.177945 3.254360 5.906122 0.047304 1.915833 3.468286 -0.228432 2.393718 4.336396 -0.267495 1.915824 3.468284 -0.228438 2.849943 26.815395 0.067035 3.108636 3.699324 -0.575452 -6.576800 -1.208307 -5.493834 -19.942557 -12.789605 63.146164 85.476811 -13.635969 14.577379 11.972437 -5.750795 -12.694497 -13.378979 -5.311282 5.481722 22.236878 -22.302761 -62.421469 -48.022036 -11.737365 -11.520053 -14.545965 -1.811757 15.949868 -2.090241 -7.218856 -4.358063 6.197809 27.293779 2.597513 6.196561 6.174093 19.776628 1.545540 -18.654213 -9.438995 2.817829 -2.445258 4.590308 -11.742064 35.938212 -2.027473 -3.447359 -23.170240 -9.457443 -0.178846 -1.146045 -0.201471
-24.310290 87.551172 7.439044 -42.478812 -8.900320 -8.463845 3.251191 5.813264 0.096296 1.910503 3.406656 -0.183692 2.387469 4.259126 -0.211917 1.910494 3.406653 -0.183698 2.969235 26.867891 0.003038 3.255415 3.771827 -0.672705 -6.615003 -1.328074 -5.616363 -19.757966 -12.810491 62.496586 86.449516 -13.886020 14.560532 11.904087 -5.786975 -12.705298 -13.354575 -5.228300 5.799112 21.976419 -21.814297 -62.171040 -48.586533 -12.333159 -11.529956 -14.852076 -1.955940 16.176940 -2.635947 -7.407845 -3.950509 6.016250 27.276974 2.488812 6.211101 6.223309 19.955179 1.587902 -18.536118 -9.739099 3.036130 -1.989873 4.960769 -11.510695 34.527220 -1.598120 -3.504298 -22.197034 -9.633720 -0.193218 -1.266129 -0.257613
-24.395653 88.029777 7.388511 -42.594660 -8.706414 -8.750528 3.247192 5.726030 0.141942 1.906994 3.344604 -0.135025 2.383520 4.181310 -0.151413 1.906986 3.344601 -0.135030 3.068749 26.910105 -0.066478 3.381656 3.830879 -0.771572 -6.649191 -1.427838 -5.748817 -19.545585 -12.788934 61.858435 87.411683 -14.167568 14.449027 11.851123 -5.830888 -12.722767 -13.314403 -5.111259 6.132933 21.900285 -21.374906 -62.067263 -49.083671 -12.793696 -11.688023 -15.175185 -2.114630 16.425027 -3.224368 -7.586725 -3.513143 5.845700 27.216793 2.333399 6.197934 6.254172 20.132023 1.618997 -18.384915 -10.013604 3.222100 -1.609152 5.339100 -11.189950 33.149162 -1.175722 -3.620135 -21.033264 -9.780107 -0.234282 -1.494880 -0.318151
-24.472368 88.530292 7.329438 -42.705354 -8.467467 -9.006450 3.258999 5.634358 0.163961 1.903340 3.283289 -0.086908 2.379369 4.104419 -0.091595 1.903333 3.283287 -0.086913 3.149797 26.931420 -0.133506 3.486759 3.862773 -0.863567 -6.684697 -1.501792 -5.886832 -19.294765 -12.730611 61.254299 88.368176 -14.445013 14.221211 11.827046 -5.875089 -12.755309 -13.267435 -4.973744 6.474532 22.075470 -21.006344 -62.112242 -49.546974 -13.047549 -12.031696 -15.483805 -2.251926 16.664212 -3.805366 -7.796437 -3.076909 5.684986 27.132813 2.140119 6.144289 6.281700 20.298762 1.634118 -18.143273 -10.247704 3.412732 -1.398064 5.702101 -10.683331 31.940798 -0.753023 -3.854503 -19.701213 -10.002500 -0.296486 -1.825441 -0.286377
-24.538178 89.034113 7.265499 -42.788377 -8.202746 -9.207911 3.268310 5.568713 0.147674 1.898204 3.223391 -0.045027 2.373294 4.029331 -0.039582 1.898197 3.223389 -0.045032 3.215710 26.923413 -0.188683 3.572073 3.856642 -0.939159 -6.725463 -1.543742 -6.020210 -18.997945 -12.643565 60.701154 89.321531 -14.695618 13.870121 11.843411 -5.914019 -12.820587 -13.214280 -4.812464 6.817216 22.482284 -20.722316 -62.288845 -50.005489 -13.078304 -12.530878 -15.745018 -2.336454 16.861410 -4.344523 -8.000211 -2.690747 5.531979 27.008005 1.927547 6.048112 6.272682 20.464849 1.565622 -17.499186 -10.424875 3.619082 -1.401081 5.985368 -9.986417 31.047530 -0.263602 -4.220702 -18.291755 -10.381870 -0.349783 -2.207826 -0.135925
-24.594282 89.525526 7.187429 -42.863770 -7.889582 -9.393831 3.285621 5.506792 0.135483 1.892970 3.162842 -0.012793 2.367001 3.953483 0.000365 1.892964 3.162841 -0.012797 3.272247 26.883123 -0.224182 3.642065 3.808746 -0.991047 -6.772528 -1.543871 -6.143849 -18.653621 -12.541725 60.216998 90.263593 -14.910239 13.406751 11.907896 -5.945117 -12.940180 -13.145372 -4.608934 7.152722 23.022589 -20.519946 -62.552528 -50.477218 -12.930603 -13.096663 -15.935123 -2.354907 16.980026 -4.794931 -8.249847 -2.315071 5.377577 26.865252 1.711445 5.927145 6.270521 20.624725 1.356788 -16.184628 -10.534617 3.865237 -1.666761 6.194864 -9.188931 30.509499 0.335634 -4.678375 -16.819369 -10.903130 -0.387587 -2.644002 0.069498
-24.640837 89.991089 7.091899 -42.945902 -7.522179 -9.579844 3.316617 5.441745 0.138757 1.890583 3.099273 0.009880 2.364174 3.873907 0.028366 1.890576 3.099272 0.009876 3.320654 26.812475 -0.238557 3.697770 3.721562 -1.017913 -6.833329 -1.497701 -6.255178 -18.280968 -12.448320 59.824702 91.170331 -15.084872 12.876639 12.029242 -5.964806 -13.130981 -13.047848 -4.357477 7.475209 23.557503 -20.373249 -62.849620 -50.969220 -12.684740 -13.619405 -16.041831 -2.308298 16.997269 -5.141380 -8.567524 -1.933581 5.250063 26.716414 1.504383 5.785911 6.286487 20.776842 1.001152 -14.074773 -10.051613 4.152703 -2.245529 6.350502 -8.433447 30.417380 0.965164 -5.145470 -15.416243 -11.488749 -0.417415 -3.069755 0.275919
-24.678324 90.419758 6.979833 -43.036288 -7.110151 -9.773876 3.361300 5.372469 0.157895 1.894618 3.036315 0.026677 2.369322 3.795125 0.049075 1.894612 3.036313 0.026674 3.351814 26.714075 -0.241870 3.731462 3.598250 -1.028709 -6.922353 -1.405105 -6.359018 -17.927873 -12.393694 59.550581 92.020051 -15.224879 12.356268 12.207883 -5.977484 -13.398049 -12.912090 -4.070132 7.784197 23.966648 -20.255228 -63.150574 -51.477159 -12.415241 -14.012996 -16.070779 -2.209965 16.922906 -5.381344 -8.953254 -1.542766 5.180169 26.571610 1.322312 5.627596 6.324097 20.900598 0.613816 -11.439451 -8.566543 4.465120 -3.129109 6.476666 -7.853853 30.775237 1.515782 -5.518495 -14.141040 -12.033252 -0.454322 -3.450889 0.429000
-24.709212 90.803021 6.858060 -43.121296 -6.691745 -9.974766 3.413294 5.311309 0.187891 1.906395 2.985068 0.043241 2.384154 3.730979 0.069617 1.906391 2.985065 0.043239 3.350443 26.588695 -0.252917 3.730629 3.439597 -1.040553 -7.035391 -1.266902 -6.474052 -17.679379 -12.409163 59.420092 92.801818 -15.351316 11.931429 12.426610 -5.994899 -13.726052 -12.750944 -3.759662 8.078429 24.219564 -20.153716 -63.460524 -51.988782 -12.162358 -14.241491 -16.042805 -2.089334 16.790097 -5.509363 -9.365916 -1.162056 5.166011 26.432351 1.181590 5.472146 6.376740 20.964144 0.334649 -8.974962 -6.803794 4.762178 -4.247888 6.571287 -7.483812 31.535658 1.947938 -5.734963 -13.016725 -12.475194 -0.497805 -3.762398 0.502792
-24.738126 91.134773 6.737365 -43.180705 -6.324976 -10.175043 3.465288 5.277753 0.222999 1.925692 2.959801 0.064501 2.408439 3.699280 0.096225 1.925690 2.959798 0.064501 3.304600 26.433666 -0.286458 3.685534 3.242199 -1.066856 -7.148727 -1.094414 -6.614977 -17.656203 -12.508652 59.437971 93.521483 -15.501638 11.699174 12.663005 -6.019448 -14.087837 -12.593451 -3.444033 8.348587 24.354797 -20.065037 -63.793347 -52.484671 -11.934793 -14.322441 -15.979443 -1.978173 16.632895 -5.517623 -9.736047 -0.820211 5.192601 26.293258 1.092173 5.335879 6.431048 20.943557 0.169411 -7.019583 -5.326967 4.987061 -5.474249 6.625680 -7.300446 32.581212 2.259573 -5.750017 -12.036960 -12.866937 -0.536984 -3.974630 0.546173
-24.821471 91.421282 6.637423 -43.367647 -6.352242 -10.535858 3.747625 5.529389 0.462002 1.953197 2.969831 0.093026 2.443071 3.711656 0.132169 1.953197 2.969829 0.093028 3.214045 26.246215 -0.343031 3.596126 3.002907 -1.108072 -7.244415 -0.903997 -6.777211 -17.951004 -12.676135 59.579578 94.199637 -15.715468 11.731619 12.897613 -6.044597 -14.453642 -12.457474 -3.135857 8.582876 24.420380 -19.992005 -64.153111 -52.946721 -11.732317 -14.310449 -15.892987 -1.900584 16.480209 -5.207522 -9.681368 -0.349698 5.231432 26.051810 1.043134 5.218980 6.595734 20.807907 0.104381 -5.544844 -4.059591 5.274085 -6.441649 6.858832 -7.217714 33.925858 2.473435 -5.533564 -11.307970 -13.190597 -0.612986 -4.089384 0.536609
-24.851497 91.637550 6.547009 -43.339132 -6.180062 -10.669465 3.767316 5.547223 0.446191 1.991070 3.014787 0.129229 2.490764 3.767637 0.177992 1.991070 3.014785 0.129232 3.091471 26.029735 -0.411140 3.473949 2.726783 -1.154419 -7.312576 -0.696447 -6.942572 -18.548844 -12.868645 59.809073 94.858179 -16.005642 12.000879 13.111547 -6.064115 -14.795272 -12.340727 -2.831851 8.765940 24.448497 -19.943036 -64.526726 -53.361323 -11.561122 -14.270611 -15.789963 -1.868790 16.348401 -4.953405 -9.849725 -0.179728 5.288889 25.902904 1.042034 5.121130 6.586255 20.627948 0.064796 -4.314498 -2.986680 5.235048 -7.429091 6.820302 -7.133591 34.890181 2.565285 -5.272631 -10.681669 -13.413293 -0.588050 -3.853941 0.502215
